<?xml version="1.0" encoding="UTF-8"?>
<svg width="512" height="512" viewBox="0 0 512 512" fill="none" xmlns="http://www.w3.org/2000/svg">
  <!-- Gradient Definitions -->
  <defs>
    <linearGradient id="bgGradient" x1="0%" y1="0%" x2="100%" y2="100%">
      <stop offset="0%" style="stop-color:#1E40AF;stop-opacity:1" />
      <stop offset="100%" style="stop-color:#7C3AED;stop-opacity:1" />
    </linearGradient>
    <linearGradient id="saveGradient" x1="0%" y1="0%" x2="100%" y2="100%">
      <stop offset="0%" style="stop-color:#10B981;stop-opacity:1" />
      <stop offset="100%" style="stop-color:#059669;stop-opacity:1" />
    </linearGradient>
  </defs>
  
  <!-- Background -->
  <rect width="512" height="512" rx="100" fill="url(#bgGradient)"/>
  
  <!-- Main Icon Group -->
  <g transform="translate(256, 256)">
    <!-- Article/Document Shape -->
    <g transform="translate(-120, -140)">
      <!-- Document Background -->
      <rect x="0" y="0" width="240" height="280" rx="20" fill="white" opacity="0.95"/>
      
      <!-- Header Bar -->
      <rect x="0" y="0" width="240" height="60" rx="20" fill="#E5E7EB"/>
      <path d="M 0 40 L 240 40" stroke="none"/>
      <rect x="0" y="40" width="240" height="20" fill="#E5E7EB"/>
      
      <!-- Text Lines -->
      <rect x="30" y="90" width="180" height="12" rx="6" fill="#9CA3AF"/>
      <rect x="30" y="115" width="150" height="12" rx="6" fill="#9CA3AF"/>
      <rect x="30" y="140" width="170" height="12" rx="6" fill="#9CA3AF"/>
      <rect x="30" y="165" width="140" height="12" rx="6" fill="#9CA3AF"/>
      <rect x="30" y="190" width="160" height="12" rx="6" fill="#9CA3AF"/>
      <rect x="30" y="215" width="130" height="12" rx="6" fill="#9CA3AF"/>
      
      <!-- Save Icon Circle -->
      <circle cx="180" cy="220" r="40" fill="url(#saveGradient)"/>
      
      <!-- Download Arrow -->
      <g transform="translate(180, 220)">
        <path d="M 0 -15 L 0 10" stroke="white" stroke-width="6" stroke-linecap="round"/>
        <path d="M -12 0 L 0 12 L 12 0" stroke="white" stroke-width="6" stroke-linecap="round" stroke-linejoin="round" fill="none"/>
        <path d="M -18 18 L 18 18" stroke="white" stroke-width="6" stroke-linecap="round"/>
      </g>
    </g>
  </g>
</svg>